<svg xmlns="http://www.w3.org/2000/svg" style="display: none;"><symbol id="trophy" viewBox="0 0 368 368"><title>trophy</title><path d="m360 0h-352c-4.425781 0-8 3.585938-8 8v96c0 37.136719 28.265625 67.785156 64.40625 71.59375 3.53125 33.511719 30.136719 60.214844 63.59375 63.933594v48.472656h-24c-22.054688 0-40 17.945312-40 40v32c0 4.414062 3.574219 8 8 8h224c4.425781 0 8-3.585938 8-8v-32c0-22.054688-17.945312-40-40-40h-24v-48.472656c33.457031-3.71875 60.0625-30.429688 63.59375-63.933594 36.140625-3.808594 64.40625-34.457031 64.40625-71.59375v-96c0-4.414062-3.574219-8-8-8zm-344 104v-88h48v143.359375c-27.089844-3.902344-48-27.207031-48-55.359375zm272 224v24h-208v-24c0-13.230469 10.769531-24 24-24h160c13.230469 0 24 10.769531 24 24zm-144-40v-48h80v48zm88-64h-96c-30.871094 0-56-25.121094-56-56v-152h208v152c0 30.878906-25.128906 56-56 56zm120-120c0 28.152344-20.910156 51.457031-48 55.359375v-143.359375h48zm0 0"/><path d="m184 64c-30.871094 0-56 25.121094-56 56s25.128906 56 56 56 56-25.121094 56-56-25.128906-56-56-56zm0 96c-22.054688 0-40-17.945312-40-40s17.945312-40 40-40 40 17.945312 40 40-17.945312 40-40 40zm0 0"/></symbol><symbol id="furniture-and-household" viewBox="0 0 512 512"><title>furniture-and-household</title><path d="m128 85.332031h-25.601562c-9.425782 0-17.066407 7.640625-17.066407 17.066407v332.800781c0 9.425781 7.640625 17.066406 17.066407 17.066406h25.601562c9.425781 0 17.066406-7.640625 17.066406-17.066406v-332.800781c0-9.425782-7.640625-17.066407-17.066406-17.066407zm0 349.867188h-25.601562v-332.800781h25.601562zm0 0"/><path d="m409.601562 85.332031h-25.601562c-9.425781 0-17.066406 7.640625-17.066406 17.066407v332.800781c0 9.425781 7.640625 17.066406 17.066406 17.066406h25.601562c9.425782 0 17.066407-7.640625 17.066407-17.066406v-332.800781c0-9.425782-7.640625-17.066407-17.066407-17.066407zm0 349.867188h-25.601562v-332.800781h25.601562zm0 0"/><path d="m213.332031 213.332031h-17.066406c-9.425781 0-17.066406 7.640625-17.066406 17.066407v85.335937c0 9.425781 7.640625 17.066406 17.066406 17.066406h17.066406c9.425781 0 17.066407-7.640625 17.066407-17.066406v-85.335937c0-9.425782-7.640626-17.066407-17.066407-17.066407zm0 102.402344h-17.066406v-85.335937h17.066406zm0 0"/><path d="m315.734375 213.332031h-17.066406c-9.425781 0-17.066407 7.640625-17.066407 17.066407v85.335937c0 9.425781 7.640626 17.066406 17.066407 17.066406h17.066406c9.425781 0 17.066406-7.640625 17.066406-17.066406v-85.335937c0-9.425782-7.640625-17.066407-17.066406-17.066407zm0 102.402344h-17.066406v-85.335937h17.066406zm0 0"/><path d="m503.464844 494.933594h-8.53125v-469.332032c0-14.140624-11.460938-25.601562-25.601563-25.601562h-426.664062c-14.140625 0-25.601563 11.460938-25.601563 25.601562v469.332032h-8.53125c-4.714844 0-8.535156 3.820312-8.535156 8.53125 0 4.714844 3.820312 8.535156 8.535156 8.535156h494.929688c4.714844 0 8.535156-3.820312 8.535156-8.535156 0-4.710938-3.820312-8.53125-8.535156-8.53125zm-435.199219-443.734375h179.199219v443.734375h-179.199219zm196.269531 0h179.199219v443.734375h-179.199219zm184.199219-17.066407h-385.46875l-17.066406-17.066406h419.601562zm-414.601563-5 17.066407 17.066407v448.734375h-17.066407zm426.667969 465.800782v-448.734375l17.066407-17.066407v465.800782zm0 0"/></symbol></svg>