<svg height="512pt" viewBox="0 0 512 512" width="512pt" xmlns="http://www.w3.org/2000/svg"><path d="m128 85.332031h-25.601562c-9.425782 0-17.066407 7.640625-17.066407 17.066407v332.800781c0 9.425781 7.640625 17.066406 17.066407 17.066406h25.601562c9.425781 0 17.066406-7.640625 17.066406-17.066406v-332.800781c0-9.425782-7.640625-17.066407-17.066406-17.066407zm0 349.867188h-25.601562v-332.800781h25.601562zm0 0"/><path d="m409.601562 85.332031h-25.601562c-9.425781 0-17.066406 7.640625-17.066406 17.066407v332.800781c0 9.425781 7.640625 17.066406 17.066406 17.066406h25.601562c9.425782 0 17.066407-7.640625 17.066407-17.066406v-332.800781c0-9.425782-7.640625-17.066407-17.066407-17.066407zm0 349.867188h-25.601562v-332.800781h25.601562zm0 0"/><path d="m213.332031 213.332031h-17.066406c-9.425781 0-17.066406 7.640625-17.066406 17.066407v85.335937c0 9.425781 7.640625 17.066406 17.066406 17.066406h17.066406c9.425781 0 17.066407-7.640625 17.066407-17.066406v-85.335937c0-9.425782-7.640626-17.066407-17.066407-17.066407zm0 102.402344h-17.066406v-85.335937h17.066406zm0 0"/><path d="m315.734375 213.332031h-17.066406c-9.425781 0-17.066407 7.640625-17.066407 17.066407v85.335937c0 9.425781 7.640626 17.066406 17.066407 17.066406h17.066406c9.425781 0 17.066406-7.640625 17.066406-17.066406v-85.335937c0-9.425782-7.640625-17.066407-17.066406-17.066407zm0 102.402344h-17.066406v-85.335937h17.066406zm0 0"/><path d="m503.464844 494.933594h-8.53125v-469.332032c0-14.140624-11.460938-25.601562-25.601563-25.601562h-426.664062c-14.140625 0-25.601563 11.460938-25.601563 25.601562v469.332032h-8.53125c-4.714844 0-8.535156 3.820312-8.535156 8.53125 0 4.714844 3.820312 8.535156 8.535156 8.535156h494.929688c4.714844 0 8.535156-3.820312 8.535156-8.535156 0-4.710938-3.820312-8.53125-8.535156-8.53125zm-435.199219-443.734375h179.199219v443.734375h-179.199219zm196.269531 0h179.199219v443.734375h-179.199219zm184.199219-17.066407h-385.46875l-17.066406-17.066406h419.601562zm-414.601563-5 17.066407 17.066407v448.734375h-17.066407zm426.667969 465.800782v-448.734375l17.066407-17.066407v465.800782zm0 0"/></svg>